HIERARCHY
ROOT mug2
{
	OFFSET 0.000000 0.000000 0.000000
	CHANNELS 6 Xposition Yposition Zposition Yrotation Xrotation Zrotation
	End Site
	{
		OFFSET 0.000000 0.000000 0.000000
	}
}
MOTION
Frames: 69
Frame Time: 0.008333334
2.457986 3.332141 2.524122 -76.296780 -0.055695 3.215731 
2.458713 3.331895 2.524500 -76.266510 -0.054962 3.212945 
2.459304 3.331823 2.524610 -76.289060 -0.051178 3.185423 
2.459641 3.331876 2.524774 -76.298490 -0.059631 3.183451 
2.459830 3.331614 2.525006 -76.299440 -0.084900 3.194536 
2.459426 3.331898 2.525010 -76.290410 -0.054260 3.185592 
2.459068 3.332169 2.524710 -76.284550 -0.058044 3.199621 
2.458393 3.332144 2.524465 -76.289920 -0.066681 3.191746 
2.457721 3.332243 2.524173 -76.292850 -0.038055 3.231766 
2.457471 3.332229 2.523844 -76.290280 -0.033325 3.247623 
2.457212 3.332263 2.523487 -76.288090 -0.025421 3.245564 
2.457165 3.332279 2.523019 -76.312740 -0.029114 3.228373 
2.457289 3.331923 2.522784 -76.311770 0.027421 3.232718 
2.457358 3.331999 2.522583 -76.333250 0.006973 3.216033 
2.457560 3.332161 2.522408 -76.337980 -0.011719 3.163806 
2.457717 3.332083 2.522575 -76.327330 -0.022675 3.182820 
2.457842 3.332036 2.522666 -76.327820 -0.025940 3.178913 
2.457943 3.332278 2.522768 -76.322140 -0.027893 3.193530 
2.457810 3.332360 2.522882 -76.313960 -0.024475 3.193371 
2.457609 3.332424 2.522900 -76.319790 -0.021423 3.196695 
2.457454 3.332414 2.523098 -76.302190 -0.021423 3.200616 
2.457331 3.332439 2.523084 -76.312290 -0.027679 3.205449 
2.457283 3.332435 2.523161 -76.302920 -0.020538 3.209684 
2.457245 3.332598 2.523176 -76.301700 -0.043610 3.192600 
2.457276 3.332497 2.523116 -76.303130 -0.016602 3.206459 
2.457334 3.332403 2.522887 -76.330350 -0.017792 3.171057 
2.457344 3.332388 2.522745 -76.317930 0.000286 3.168856 
2.457428 3.332331 2.522632 -76.335300 -0.011749 3.170942 
2.457207 3.332357 2.522608 -76.341740 -0.001413 3.254387 
2.457142 3.332061 2.522695 -76.315640 -0.000936 3.224511 
2.456947 3.332092 2.522651 -76.311710 0.001408 3.229986 
2.456733 3.332156 2.522450 -76.334750 0.012760 3.183262 
2.456571 3.332182 2.522680 -76.296840 0.018870 3.240748 
2.456452 3.332223 2.522659 -76.308650 0.030689 3.188472 
2.456241 3.332118 2.522836 -76.322240 0.012166 3.158514 
2.456560 3.332197 2.522779 -76.313110 0.052521 3.204936 
2.456270 3.332170 2.523284 -76.293790 0.068819 3.225802 
2.456418 3.332015 2.523128 -76.295010 0.049801 3.241890 
2.456476 3.332340 2.523115 -76.307980 0.047548 3.224449 
2.456169 3.332467 2.522897 -76.321320 0.025350 3.173581 
2.455742 3.332465 2.523242 -76.330380 0.044696 3.174989 
2.455587 3.332374 2.523423 -76.317840 0.078497 3.195339 
2.455440 3.332630 2.523393 -76.311190 0.043985 3.206454 
2.455214 3.332467 2.523503 -76.323910 0.044788 3.209181 
2.455293 3.332549 2.523344 -76.334350 0.050528 3.188397 
2.455466 3.332483 2.523318 -76.336090 0.034802 3.190965 
2.455683 3.332327 2.523384 -76.307800 0.068935 3.207208 
2.455826 3.332407 2.523117 -76.280610 0.042737 3.220927 
2.455877 3.332266 2.522992 -76.311520 0.057355 3.200846 
2.455851 3.332288 2.523047 -76.300110 0.027034 3.232891 
2.455692 3.332270 2.523002 -76.312230 0.030965 3.209333 
2.455638 3.332261 2.523120 -76.309570 0.037008 3.211930 
2.455441 3.332435 2.523084 -76.332400 0.052042 3.192148 
2.455539 3.332371 2.522947 -76.306640 0.058464 3.199212 
2.455511 3.332392 2.523004 -76.328800 0.034609 3.211188 
2.455638 3.332382 2.523009 -76.297060 0.054326 3.198959 
2.455768 3.332410 2.522988 -76.308900 0.047816 3.189548 
2.455698 3.332366 2.523285 -76.299990 0.046557 3.241060 
2.455721 3.332438 2.522994 -76.312990 0.012100 3.201642 
2.455752 3.332337 2.523118 -76.297300 0.044439 3.218270 
2.455697 3.332389 2.523134 -76.312500 0.039820 3.214216 
2.455690 3.332424 2.523098 -76.303530 0.064148 3.199012 
2.455635 3.332476 2.523025 -76.312680 0.058025 3.188211 
2.455486 3.332510 2.523141 -76.326110 0.060284 3.194202 
2.455549 3.332502 2.523145 -76.318700 0.053516 3.186610 
2.455775 3.332405 2.522839 -76.308350 0.061401 3.192935 
2.455852 3.332420 2.522837 -76.309200 0.047034 3.192410 
2.455875 3.332493 2.522817 -76.307980 0.054785 3.192097 
2.455578 3.332427 2.523059 -76.324770 0.051023 3.211954 
